# xmcd CD database file
#
# Track frame offsets:
#	180
#	15454
#	28952
#	42363
#	66069
#	77690
#	101026
#	119143
#	138301
#	148866
#
# Disc length: 2161 seconds
#
# Revision: 2
# Processed by: cddbd v1.4PL0 Copyright (c) Steve Scherf et al.
# Submitted via: CDex 1.40Release
#
DISCID=8f086f0a
DTITLE=Cledus "T." Judd (No Relation) - Cledus "T." Judd (No Relation)
DYEAR=1900
DGENRE=Comedy
TTITLE0=Gone Funky
TTITLE1=Indian In-laws
TTITLE2=Katie Bar The Door
TTITLE3=Swingin'
TTITLE4=Refried Beans
TTITLE5=Motel Californie
TTITLE6=Please Take The Girl
TTITLE7=We Own The World
TTITLE8=Shade Tree Mechanic
TTITLE9=Stinkin' Problem
EXTD=ID3G: 57
EXTT0=
EXTT1=
EXTT2=
EXTT3=
EXTT4=
EXTT5=
EXTT6=
EXTT7=
EXTT8=
EXTT9=
PLAYORDER=
